<svg xmlns="http://www.w3.org/2000/svg" width="323.687" height="35.74" viewBox="0 0 323.687 35.74">
    <defs>
        <style>
            .prefix__cls-2{fill:#0a4372}
        </style>
    </defs>
    <g id="prefix__logo" style="mix-blend-mode:luminosity;isolation:isolate">
        <path id="prefix__Контур_471" d="M306.225 0h-33.139v35.367h35.367V0zM304 30.91h-26.454V4.454H304z" class="prefix__cls-2" data-name="Контур 471" transform="translate(15.234)"/>
        <path id="prefix__Линия_41" d="M18.893 0L0 18.895" class="prefix__cls-2" data-name="Линия 41" transform="translate(290.902 2.32)"/>
        <path id="prefix__Прямоугольник_35" d="M0 0H4.455V26.72H0z" class="prefix__cls-2" data-name="Прямоугольник 35" transform="rotate(-135 150.97 -49.174)"/>
        <path id="prefix__Линия_42" d="M19.278 0L0 19.279" class="prefix__cls-2" data-name="Линия 42" transform="translate(301.846 13.911)"/>
        <path id="prefix__Прямоугольник_36" d="M0 0H4.458V27.262H0z" class="prefix__cls-2" data-name="Прямоугольник 36" transform="rotate(-135 158.933 -45.462)"/>
        <g id="prefix__Сгруппировать_167" data-name="Сгруппировать 167" transform="translate(0 1.676)">
            <path id="prefix__Контур_472" d="M0 1.85h5.527a10.8 10.8 0 0 1 2.856.286 5.008 5.008 0 0 1 2.26 1.382 6.584 6.584 0 0 1 1.433 2.429 11.12 11.12 0 0 1 .487 3.544 9.854 9.854 0 0 1-.458 3.194 6.537 6.537 0 0 1-1.608 2.65 5.324 5.324 0 0 1-2.122 1.2 9.158 9.158 0 0 1-2.682.318H0zm3.028 2.54v9.919h2.256a8.112 8.112 0 0 0 1.829-.143 2.751 2.751 0 0 0 1.22-.625 3.129 3.129 0 0 0 .791-1.441 9.676 9.676 0 0 0 .306-2.744 8.863 8.863 0 0 0-.305-2.666 3.434 3.434 0 0 0-.855-1.452 2.918 2.918 0 0 0-1.4-.705 13.713 13.713 0 0 0-2.48-.143H3.028z" class="prefix__cls-2" data-name="Контур 472" transform="translate(0 -1.572)"/>
            <path id="prefix__Контур_473" d="M20.679 13.2l2.856.491a4.725 4.725 0 0 1-1.749 2.409 5.147 5.147 0 0 1-2.992.829 4.863 4.863 0 0 1-4.205-1.862A6.251 6.251 0 0 1 13.51 11.3a6.024 6.024 0 0 1 1.415-4.25A4.631 4.631 0 0 1 18.5 5.51a4.838 4.838 0 0 1 3.837 1.608 7.161 7.161 0 0 1 1.342 4.935h-7.211a2.917 2.917 0 0 0 .7 2 2.193 2.193 0 0 0 1.669.714 1.771 1.771 0 0 0 1.141-.372 2.306 2.306 0 0 0 .7-1.2m.14-2.922a2.838 2.838 0 0 0-.643-1.919 2.065 2.065 0 0 0-3.052.037 2.679 2.679 0 0 0-.6 1.882z" class="prefix__cls-2" data-name="Контур 473" transform="translate(.754 -1.368)"/>
            <path id="prefix__Контур_474" d="M32.512 16.633v-1.627a4.439 4.439 0 0 1-3.614 1.9 4.015 4.015 0 0 1-1.973-.485 2.832 2.832 0 0 1-1.26-1.352 6.028 6.028 0 0 1-.392-2.408V5.773h2.89v5.007a13.971 13.971 0 0 0 .156 2.813 1.5 1.5 0 0 0 .579.82 1.758 1.758 0 0 0 1.066.3 2.251 2.251 0 0 0 1.324-.406 2 2 0 0 0 .794-1 11.258 11.258 0 0 0 .221-2.94V5.773h2.891v10.859h-2.682z" class="prefix__cls-2" data-name="Контур 474" transform="translate(1.41 -1.353)"/>
            <path id="prefix__Контур_475" d="M42.533 5.975v2.3h-1.946v4.382a11.721 11.721 0 0 0 .056 1.553.62.62 0 0 0 .258.361.816.816 0 0 0 .489.143 3.771 3.771 0 0 0 1.162-.277l.193 2.246a5.61 5.61 0 0 1-2.256.433 3.556 3.556 0 0 1-1.388-.262 2.02 2.02 0 0 1-.909-.679 2.7 2.7 0 0 1-.4-1.122 14.567 14.567 0 0 1-.092-2.033V8.275h-1.325v-2.3H37.7V3.819l2.891-1.705v3.862h1.946z" class="prefix__cls-2" data-name="Контур 475" transform="translate(2.029 -1.558)"/>
            <path id="prefix__Контур_476" d="M43.116 13.583L46 13.129a2.115 2.115 0 0 0 .745 1.272 2.555 2.555 0 0 0 1.584.433 2.81 2.81 0 0 0 1.677-.413.922.922 0 0 0 .379-.777.766.766 0 0 0-.2-.549 2.3 2.3 0 0 0-.965-.385 15.656 15.656 0 0 1-4.425-1.41 2.8 2.8 0 0 1-1.3-2.449 3.023 3.023 0 0 1 1.118-2.38 5.226 5.226 0 0 1 3.462-.959 6.11 6.11 0 0 1 3.322.72 3.659 3.659 0 0 1 1.492 2.133l-2.711.489a1.685 1.685 0 0 0-.661-.982 2.4 2.4 0 0 0-1.385-.342 3.1 3.1 0 0 0-1.631.322.7.7 0 0 0-.326.594.644.644 0 0 0 .288.526 10.625 10.625 0 0 0 2.692.82 7.912 7.912 0 0 1 3.215 1.293 2.706 2.706 0 0 1 .906 2.161 3.323 3.323 0 0 1-1.251 2.594 5.491 5.491 0 0 1-3.7 1.089 6.068 6.068 0 0 1-3.522-.9 4.153 4.153 0 0 1-1.693-2.442" class="prefix__cls-2" data-name="Контур 476" transform="translate(2.405 -1.368)"/>
            <path id="prefix__Контур_477" d="M64.644 8.953l-2.818.525a2.044 2.044 0 0 0-.653-1.278 1.981 1.981 0 0 0-1.329-.431 2.155 2.155 0 0 0-1.722.751 3.851 3.851 0 0 0-.645 2.505 4.486 4.486 0 0 0 .651 2.763 2.15 2.15 0 0 0 1.75.8 1.938 1.938 0 0 0 1.347-.47 2.837 2.837 0 0 0 .737-1.619l2.819.489a5.012 5.012 0 0 1-1.69 2.938 5.244 5.244 0 0 1-3.349.993 4.968 4.968 0 0 1-3.809-1.514 5.864 5.864 0 0 1-1.417-4.184 5.886 5.886 0 0 1 1.425-4.213A5.054 5.054 0 0 1 59.8 5.51a5.259 5.259 0 0 1 3.161.852 4.71 4.71 0 0 1 1.685 2.591" class="prefix__cls-2" data-name="Контур 477" transform="translate(3.041 -1.368)"/>
            <path id="prefix__Контур_478" d="M69.034 1.852v5.465a4.255 4.255 0 0 1 3.318-1.6 4.205 4.205 0 0 1 1.785.367 2.98 2.98 0 0 1 1.2.943 3.486 3.486 0 0 1 .55 1.274 11.348 11.348 0 0 1 .148 2.161v6.388h-2.89v-5.762a8.681 8.681 0 0 0-.16-2.176 1.434 1.434 0 0 0-.573-.734 1.832 1.832 0 0 0-1.034-.27 2.325 2.325 0 0 0-1.262.346 1.992 1.992 0 0 0-.816 1.052 6.281 6.281 0 0 0-.262 2.081v5.463h-2.889v-15z" class="prefix__cls-2" data-name="Контур 478" transform="translate(3.69 -1.572)"/>
            <path id="prefix__Контур_479" d="M84.65 13.2l2.853.491a4.729 4.729 0 0 1-1.748 2.409 5.129 5.129 0 0 1-2.991.829 4.867 4.867 0 0 1-4.206-1.862 6.259 6.259 0 0 1-1.079-3.767A6.025 6.025 0 0 1 78.9 7.048a4.638 4.638 0 0 1 3.571-1.538A4.828 4.828 0 0 1 86.3 7.118a7.145 7.145 0 0 1 1.343 4.935h-7.204a2.931 2.931 0 0 0 .7 2 2.2 2.2 0 0 0 1.669.714 1.767 1.767 0 0 0 1.143-.372 2.3 2.3 0 0 0 .7-1.2m.139-2.922a2.828 2.828 0 0 0-.645-1.919 2.061 2.061 0 0 0-3.049.037 2.7 2.7 0 0 0-.6 1.882z" class="prefix__cls-2" data-name="Контур 479" transform="translate(4.322 -1.368)"/>
            <path id="prefix__Контур_480" d="M88.354 13.583l2.887-.454a2.106 2.106 0 0 0 .751 1.272 2.527 2.527 0 0 0 1.579.433 2.81 2.81 0 0 0 1.677-.413.926.926 0 0 0 .381-.777.751.751 0 0 0-.207-.549 2.259 2.259 0 0 0-.963-.385 15.769 15.769 0 0 1-4.428-1.41 2.8 2.8 0 0 1-1.294-2.449 3.027 3.027 0 0 1 1.119-2.38 5.228 5.228 0 0 1 3.464-.959 6.085 6.085 0 0 1 3.318.72 3.678 3.678 0 0 1 1.495 2.133l-2.71.489a1.7 1.7 0 0 0-.661-.982 2.409 2.409 0 0 0-1.389-.342 3.1 3.1 0 0 0-1.629.322.7.7 0 0 0-.326.594.644.644 0 0 0 .288.526 10.66 10.66 0 0 0 2.691.82 8 8 0 0 1 3.22 1.293 2.705 2.705 0 0 1 .9 2.161 3.327 3.327 0 0 1-1.249 2.594 5.481 5.481 0 0 1-3.7 1.089 6.059 6.059 0 0 1-3.52-.9 4.146 4.146 0 0 1-1.7-2.442" class="prefix__cls-2" data-name="Контур 480" transform="translate(4.929 -1.368)"/>
            <path id="prefix__Контур_481" d="M105.893 16.852v-15h10.3V4.39h-7.273v3.553h6.264v2.538h-6.264v6.371z" class="prefix__cls-2" data-name="Контур 481" transform="translate(5.907 -1.572)"/>
            <path id="prefix__Контур_482" d="M117.987 1.85h2.889V4.5h-2.889zm0 4.14h2.889v10.861h-2.889z" class="prefix__cls-2" data-name="Контур 482" transform="translate(6.582 -1.572)"/>
            <path id="prefix__Контур_483" d="M133.386 16.647H130.5V11.08a8.833 8.833 0 0 0-.181-2.283 1.589 1.589 0 0 0-.594-.807 1.656 1.656 0 0 0-.983-.29 2.253 2.253 0 0 0-1.326.413 2.075 2.075 0 0 0-.8 1.089 9.486 9.486 0 0 0-.217 2.507v4.939H123.5V5.788h2.682v1.6a4.391 4.391 0 0 1 5.3-1.532 2.964 2.964 0 0 1 1.19.876 3.18 3.18 0 0 1 .556 1.21 8.837 8.837 0 0 1 .16 1.938z" class="prefix__cls-2" data-name="Контур 483" transform="translate(6.889 -1.368)"/>
            <path id="prefix__Контур_484" d="M137.788 9.091l-2.573-.485a4.062 4.062 0 0 1 1.515-2.341 5.534 5.534 0 0 1 3.2-.759 6.867 6.867 0 0 1 2.869.458 2.849 2.849 0 0 1 1.326 1.159 5.955 5.955 0 0 1 .385 2.579l-.035 3.364a11.626 11.626 0 0 0 .138 2.118 6.252 6.252 0 0 0 .524 1.462h-2.889c-.075-.188-.167-.462-.275-.831-.052-.167-.084-.277-.1-.33a5.191 5.191 0 0 1-1.573 1.078 4.469 4.469 0 0 1-1.786.361 3.676 3.676 0 0 1-2.641-.917 3.048 3.048 0 0 1-.966-2.313 3.105 3.105 0 0 1 .443-1.651 2.9 2.9 0 0 1 1.239-1.112 9.629 9.629 0 0 1 2.3-.675 15.57 15.57 0 0 0 2.805-.712v-.287a1.5 1.5 0 0 0-.414-1.2 2.476 2.476 0 0 0-1.566-.361 2.037 2.037 0 0 0-1.21.311 2.113 2.113 0 0 0-.708 1.08m3.9 2.332a16.466 16.466 0 0 1-1.759.446 5.36 5.36 0 0 0-1.57.507 1.213 1.213 0 0 0-.568 1.027 1.44 1.44 0 0 0 .452 1.058 1.584 1.584 0 0 0 1.153.446 2.5 2.5 0 0 0 1.492-.517 1.832 1.832 0 0 0 .686-.963 5.716 5.716 0 0 0 .114-1.421v-.582z" class="prefix__cls-2" data-name="Контур 484" transform="translate(7.525 -1.368)"/>
            <path id="prefix__Контур_485" d="M156.546 16.647h-2.886V11.08a9 9 0 0 0-.18-2.28 1.625 1.625 0 0 0-.6-.807 1.653 1.653 0 0 0-.984-.29 2.26 2.26 0 0 0-1.325.413 2.069 2.069 0 0 0-.8 1.089 9.56 9.56 0 0 0-.215 2.507v4.939h-2.891V5.788h2.679v1.6a4.3 4.3 0 0 1 3.566-1.874 4.259 4.259 0 0 1 1.734.342 2.905 2.905 0 0 1 1.188.876 3.22 3.22 0 0 1 .561 1.21 9.088 9.088 0 0 1 .156 1.938v6.771z" class="prefix__cls-2" data-name="Контур 485" transform="translate(8.182 -1.368)"/>
            <path id="prefix__Контур_486" d="M157.7 16.633v-2.265l4.08-4.668q1.006-1.145 1.488-1.625c-.339.022-.775.037-1.328.045l-3.858.024V5.773h9.018V7.79l-4.17 4.786-1.47 1.584c.8-.048 1.3-.07 1.489-.07h4.463v2.542H157.7z" class="prefix__cls-2" data-name="Контур 486" transform="translate(8.797 -1.353)"/>
            <path id="prefix__Контур_487" d="M168.612 16.852v-15h2.888v7.964l3.362-3.824h3.547l-3.717 3.972 4 6.888h-3.1l-2.761-4.9-1.331 1.421v3.479z" class="prefix__cls-2" data-name="Контур 487" transform="translate(9.406 -1.572)"/>
            <path id="prefix__Контур_488" d="M179.088 11.061a5.948 5.948 0 0 1 .707-2.786A4.866 4.866 0 0 1 181.8 6.22a5.924 5.924 0 0 1 2.9-.712 5.436 5.436 0 0 1 4.051 1.61 5.569 5.569 0 0 1 1.579 4.067 5.641 5.641 0 0 1-1.6 4.112 5.388 5.388 0 0 1-4.015 1.629 6.3 6.3 0 0 1-2.857-.681 4.638 4.638 0 0 1-2.067-1.99 6.662 6.662 0 0 1-.706-3.194m2.959.156a3.671 3.671 0 0 0 .77 2.505 2.5 2.5 0 0 0 3.791 0 3.718 3.718 0 0 0 .762-2.529 3.648 3.648 0 0 0-.762-2.485 2.5 2.5 0 0 0-3.791 0 3.682 3.682 0 0 0-.77 2.509" class="prefix__cls-2" data-name="Контур 488" transform="translate(9.99 -1.368)"/>
            <path id="prefix__Контур_489" d="M201.755 16.647h-2.885V11.08a8.621 8.621 0 0 0-.185-2.283 1.592 1.592 0 0 0-.592-.807 1.652 1.652 0 0 0-.984-.29 2.27 2.27 0 0 0-1.326.413 2.1 2.1 0 0 0-.807 1.089 9.592 9.592 0 0 0-.216 2.507v4.939h-2.887V5.788h2.679v1.6a4.395 4.395 0 0 1 5.3-1.532 2.923 2.923 0 0 1 1.187.876 3.2 3.2 0 0 1 .56 1.21 8.95 8.95 0 0 1 .156 1.938v6.771z" class="prefix__cls-2" data-name="Контур 489" transform="translate(10.704 -1.368)"/>
            <path id="prefix__Контур_490" d="M209.065 5.975v2.3h-1.95v4.382a11.065 11.065 0 0 0 .059 1.553.636.636 0 0 0 .259.361.819.819 0 0 0 .49.143 3.825 3.825 0 0 0 1.166-.277l.189 2.246a5.612 5.612 0 0 1-2.255.433 3.552 3.552 0 0 1-1.39-.262 2 2 0 0 1-.908-.679 2.654 2.654 0 0 1-.4-1.122 14.173 14.173 0 0 1-.092-2.031V8.275h-1.323v-2.3h1.323V3.819l2.887-1.705v3.862h1.949z" class="prefix__cls-2" data-name="Контур 490" transform="translate(11.319 -1.558)"/>
            <path id="prefix__Контур_491" d="M209.944 11.061a5.928 5.928 0 0 1 .712-2.786 4.866 4.866 0 0 1 2-2.056 5.931 5.931 0 0 1 2.9-.712 5.435 5.435 0 0 1 4.051 1.61 5.576 5.576 0 0 1 1.577 4.067 5.646 5.646 0 0 1-1.592 4.112 5.4 5.4 0 0 1-4.018 1.629 6.3 6.3 0 0 1-2.857-.681 4.625 4.625 0 0 1-2.064-1.99 6.626 6.626 0 0 1-.711-3.194m2.958.156a3.676 3.676 0 0 0 .77 2.505 2.5 2.5 0 0 0 3.791 0 3.729 3.729 0 0 0 .763-2.529 3.659 3.659 0 0 0-.763-2.485 2.5 2.5 0 0 0-3.791 0 3.687 3.687 0 0 0-.77 2.509" class="prefix__cls-2" data-name="Контур 491" transform="translate(11.712 -1.368)"/>
            <path id="prefix__Контур_492" d="M225.516 16.648h-2.884V5.788h2.679v1.544a4.836 4.836 0 0 1 1.228-1.458 2.183 2.183 0 0 1 1.238-.365 3.621 3.621 0 0 1 1.885.541l-.889 2.505a2.493 2.493 0 0 0-1.342-.47 1.572 1.572 0 0 0-1.016.334 2.268 2.268 0 0 0-.658 1.207 17.291 17.291 0 0 0-.241 3.654v3.368z" class="prefix__cls-2" data-name="Контур 492" transform="translate(12.42 -1.368)"/>
            <path id="prefix__Контур_493" d="M249.588 16.852h-3.262l-1.3-3.41h-6l-1.234 3.41h-3.25l5.789-15h3.226zm-5.533-5.952l-2.109-5.537-2 5.537z" class="prefix__cls-2" data-name="Контур 493" transform="translate(13.084 -1.572)"/>
            <path id="prefix__Контур_494" d="M257.357 11.365v-2.54h6.509v6.005a8.181 8.181 0 0 1-2.758 1.614 10.082 10.082 0 0 1-3.657.7 8.2 8.2 0 0 1-4.1-.99 6.29 6.29 0 0 1-2.631-2.836 9.134 9.134 0 0 1-.877-4.007 8.709 8.709 0 0 1 .979-4.176 6.617 6.617 0 0 1 2.872-2.8 7.7 7.7 0 0 1 3.588-.749 7.175 7.175 0 0 1 4.358 1.163 5.247 5.247 0 0 1 2.019 3.219l-2.991.556a3.15 3.15 0 0 0-1.196-1.724 3.6 3.6 0 0 0-2.179-.638 4.071 4.071 0 0 0-3.152 1.268 5.351 5.351 0 0 0-1.172 3.762 5.938 5.938 0 0 0 1.193 4.033 3.946 3.946 0 0 0 3.115 1.342 5.2 5.2 0 0 0 1.914-.375 6.6 6.6 0 0 0 1.648-.909v-1.919h-3.482z" class="prefix__cls-2" data-name="Контур 494" transform="translate(13.937 -1.587)"/>
            <path id="prefix__Прямоугольник_37" d="M0 0H1.932V9.535H0z" class="prefix__cls-2" data-name="Прямоугольник 37" transform="translate(.224 21.708)"/>
            <path id="prefix__Контур_495" d="M3.632 24.645h1.689v.943a2.7 2.7 0 0 1 2.151-1.1 2.281 2.281 0 0 1 1.149.272 2.129 2.129 0 0 1 .8.818 3.166 3.166 0 0 1 .982-.818 2.394 2.394 0 0 1 1.125-.272 2.5 2.5 0 0 1 1.287.309 1.892 1.892 0 0 1 .792.9 3.983 3.983 0 0 1 .188 1.431v4.42h-1.827V27.6a2.943 2.943 0 0 0-.188-1.328.857.857 0 0 0-.78-.392 1.261 1.261 0 0 0-.727.235 1.3 1.3 0 0 0-.485.688 4.825 4.825 0 0 0-.149 1.43v3.321H7.814v-3.79a5.239 5.239 0 0 0-.1-1.3.813.813 0 0 0-.305-.437.925.925 0 0 0-.554-.147 1.329 1.329 0 0 0-.761.227 1.23 1.23 0 0 0-.485.66 4.76 4.76 0 0 0-.147 1.433v3.36h-1.83z" class="prefix__cls-2" data-name="Контур 495" transform="translate(.203 -.309)"/>
            <path id="prefix__Контур_496" d="M14.839 24.645h1.689v.943a2.7 2.7 0 0 1 2.146-1.1 2.3 2.3 0 0 1 1.153.272 2.143 2.143 0 0 1 .8.818 3.149 3.149 0 0 1 .984-.818 2.386 2.386 0 0 1 1.123-.272 2.5 2.5 0 0 1 1.287.309 1.914 1.914 0 0 1 .792.9A3.945 3.945 0 0 1 25 27.136v4.42h-1.825V27.6a2.934 2.934 0 0 0-.19-1.328.856.856 0 0 0-.781-.394 1.254 1.254 0 0 0-.724.235 1.287 1.287 0 0 0-.487.688 4.882 4.882 0 0 0-.151 1.43v3.321h-1.828v-3.79a5.471 5.471 0 0 0-.093-1.3.822.822 0 0 0-.3-.437.939.939 0 0 0-.559-.147 1.332 1.332 0 0 0-.759.227 1.244 1.244 0 0 0-.487.66 4.857 4.857 0 0 0-.145 1.428v3.36H14.84v-6.91z" class="prefix__cls-2" data-name="Контур 496" transform="translate(.828 -.309)"/>
            <path id="prefix__Контур_497" d="M25.781 28.01a3.728 3.728 0 0 1 .45-1.765 3.035 3.035 0 0 1 1.266-1.3 3.742 3.742 0 0 1 1.829-.45 3.43 3.43 0 0 1 2.559 1.019 3.542 3.542 0 0 1 1 2.581 3.593 3.593 0 0 1-1.006 2.6 3.41 3.41 0 0 1-2.538 1.035 3.937 3.937 0 0 1-1.8-.431 2.94 2.94 0 0 1-1.3-1.264 4.175 4.175 0 0 1-.45-2.025m1.882.1a2.306 2.306 0 0 0 .478 1.575 1.536 1.536 0 0 0 1.194.549 1.516 1.516 0 0 0 1.186-.549A2.333 2.333 0 0 0 31 28.094a2.28 2.28 0 0 0-.478-1.562 1.514 1.514 0 0 0-1.186-.547 1.534 1.534 0 0 0-1.194.547 2.307 2.307 0 0 0-.478 1.576" class="prefix__cls-2" data-name="Контур 497" transform="translate(1.438 -.309)"/>
            <path id="prefix__Контур_498" d="M33.794 31.686v-9.537h1.823v3.432a2.591 2.591 0 0 1 2-.961 2.694 2.694 0 0 1 2.083.915 3.81 3.81 0 0 1 .825 2.633 4 4 0 0 1-.841 2.728 2.6 2.6 0 0 1-2.036.963 2.49 2.49 0 0 1-1.167-.307 2.871 2.871 0 0 1-.984-.881v1.012h-1.703zm1.792-3.6a2.944 2.944 0 0 0 .338 1.6 1.446 1.446 0 0 0 1.264.734 1.3 1.3 0 0 0 1.034-.519 2.575 2.575 0 0 0 .427-1.642 2.709 2.709 0 0 0-.431-1.716 1.362 1.362 0 0 0-1.1-.528 1.376 1.376 0 0 0-1.1.515 2.373 2.373 0 0 0-.435 1.559" class="prefix__cls-2" data-name="Контур 498" transform="translate(1.885 -.44)"/>
            <path id="prefix__Контур_499" d="M41.56 22.148h1.825v1.687H41.56zm0 2.628h1.825v6.91H41.56z" class="prefix__cls-2" data-name="Контур 499" transform="translate(2.318 -.44)"/>
            <path id="prefix__Прямоугольник_38" d="M0 0H1.827V9.535H0z" class="prefix__cls-2" data-name="Прямоугольник 38" transform="translate(47.574 21.708)"/>
            <path id="prefix__Контур_500" d="M48.56 22.148h1.827v1.687H48.56zm0 2.628h1.827v6.91H48.56z" class="prefix__cls-2" data-name="Контур 500" transform="translate(2.709 -.44)"/>
            <path id="prefix__Контур_501" d="M56.073 29.379l1.829.314a2.984 2.984 0 0 1-1.102 1.518 3.286 3.286 0 0 1-1.891.519 3.073 3.073 0 0 1-2.658-1.184 3.963 3.963 0 0 1-.682-2.386 3.841 3.841 0 0 1 .9-2.7 2.941 2.941 0 0 1 2.265-.971 3.033 3.033 0 0 1 2.425 1.025 4.531 4.531 0 0 1 .852 3.135H53.45a1.839 1.839 0 0 0 .435 1.266 1.371 1.371 0 0 0 1.039.458 1.11 1.11 0 0 0 .718-.238 1.469 1.469 0 0 0 .432-.757m.124-1.846a1.839 1.839 0 0 0-.408-1.232 1.288 1.288 0 0 0-1.932.023 1.757 1.757 0 0 0-.379 1.207H56.2z" class="prefix__cls-2" data-name="Контур 501" transform="translate(2.877 -.309)"/>
            <path id="prefix__Контур_502" d="M65.355 31.555h-1.83v-3.532a5.348 5.348 0 0 0-.117-1.447 1.025 1.025 0 0 0-.375-.513 1.094 1.094 0 0 0-.636-.182 1.436 1.436 0 0 0-.844.264 1.285 1.285 0 0 0-.515.688 5.943 5.943 0 0 0-.143 1.588v3.135H59.07v-6.91h1.709v1.014a2.82 2.82 0 0 1 3.365-.954 1.874 1.874 0 0 1 .755.556 2.08 2.08 0 0 1 .355.77 5.751 5.751 0 0 1 .1 1.229z" class="prefix__cls-2" data-name="Контур 502" transform="translate(3.295 -.309)"/>
            <path id="prefix__Прямоугольник_39" d="M0 0H1.93V9.535H0z" class="prefix__cls-2" data-name="Прямоугольник 39" transform="translate(81.55 21.708)"/>
            <path id="prefix__Контур_503" d="M87.057 31.555H85.23v-3.532a5.348 5.348 0 0 0-.117-1.447 1.017 1.017 0 0 0-.377-.513 1.073 1.073 0 0 0-.629-.182 1.444 1.444 0 0 0-.85.264 1.3 1.3 0 0 0-.513.688 5.969 5.969 0 0 0-.14 1.588v3.135h-1.827v-6.91h1.705v1.014a2.817 2.817 0 0 1 3.363-.954 1.824 1.824 0 0 1 .755.556 1.992 1.992 0 0 1 .359.77 5.707 5.707 0 0 1 .1 1.229v4.295z" class="prefix__cls-2" data-name="Контур 503" transform="translate(4.506 -.309)"/>
            <path id="prefix__Контур_504" d="M90.441 31.547l-2.782-6.91h1.915l1.307 3.528.375 1.175c.1-.3.163-.5.192-.59.062-.2.124-.39.194-.586l1.307-3.528h1.878l-2.741 6.91h-1.645z" class="prefix__cls-2" data-name="Контур 504" transform="translate(4.89 -.301)"/>
            <path id="prefix__Контур_505" d="M99.5 29.379l1.825.314a2.972 2.972 0 0 1-1.105 1.518 3.272 3.272 0 0 1-1.887.519 3.076 3.076 0 0 1-2.662-1.184 3.977 3.977 0 0 1-.681-2.386 3.85 3.85 0 0 1 .9-2.7 2.946 2.946 0 0 1 2.266-.971 3.039 3.039 0 0 1 2.425 1.025 4.547 4.547 0 0 1 .852 3.135h-4.56a1.85 1.85 0 0 0 .437 1.266 1.366 1.366 0 0 0 1.041.458 1.073 1.073 0 0 0 .709-.238 1.434 1.434 0 0 0 .441-.757m.12-1.846a1.8 1.8 0 0 0-.411-1.232 1.283 1.283 0 0 0-1.927.023 1.737 1.737 0 0 0-.381 1.207h2.717z" class="prefix__cls-2" data-name="Контур 505" transform="translate(5.299 -.309)"/>
            <path id="prefix__Контур_506" d="M101.9 29.606l1.829-.279a1.322 1.322 0 0 0 .474.807 1.626 1.626 0 0 0 1 .272 1.789 1.789 0 0 0 1.066-.26.6.6 0 0 0 .243-.5.469.469 0 0 0-.134-.344 1.475 1.475 0 0 0-.612-.245 9.956 9.956 0 0 1-2.819-.891 1.784 1.784 0 0 1-.822-1.559 1.916 1.916 0 0 1 .712-1.512 3.324 3.324 0 0 1 2.207-.61 3.865 3.865 0 0 1 2.116.46 2.351 2.351 0 0 1 .952 1.365l-1.722.314a1.065 1.065 0 0 0-.424-.621 1.573 1.573 0 0 0-.891-.212 2.063 2.063 0 0 0-1.052.2.45.45 0 0 0-.208.374.407.407 0 0 0 .185.335 7.021 7.021 0 0 0 1.718.517 5.147 5.147 0 0 1 2.047.816 1.7 1.7 0 0 1 .575 1.367 2.1 2.1 0 0 1-.792 1.638 3.467 3.467 0 0 1-2.341.688 3.867 3.867 0 0 1-2.233-.571 2.653 2.653 0 0 1-1.072-1.552" class="prefix__cls-2" data-name="Контур 506" transform="translate(5.684 -.309)"/>
            <path id="prefix__Контур_507" d="M112.745 24.767v1.462h-1.254v2.794a6.6 6.6 0 0 0 .035.988l.16.235a.489.489 0 0 0 .3.093 2.266 2.266 0 0 0 .724-.179l.149 1.417a3.5 3.5 0 0 1-1.43.277 2.245 2.245 0 0 1-.883-.169 1.276 1.276 0 0 1-.578-.429 1.693 1.693 0 0 1-.251-.716 8.377 8.377 0 0 1-.062-1.289V26.23h-.833v-1.462h.833v-1.376l1.831-1.078v2.454h1.255z" class="prefix__cls-2" data-name="Контур 507" transform="translate(6.071 -.431)"/>
            <path id="prefix__Контур_508" d="M113.587 24.645h1.685v.943a2.706 2.706 0 0 1 2.153-1.1 2.283 2.283 0 0 1 1.147.272 2.129 2.129 0 0 1 .8.818 3.258 3.258 0 0 1 .98-.818 2.414 2.414 0 0 1 1.13-.272 2.512 2.512 0 0 1 1.289.309 1.906 1.906 0 0 1 .788.9 3.983 3.983 0 0 1 .188 1.431v4.42h-1.827V27.6a2.894 2.894 0 0 0-.192-1.328.854.854 0 0 0-.779-.394 1.254 1.254 0 0 0-.724.235 1.287 1.287 0 0 0-.487.688 4.989 4.989 0 0 0-.147 1.43v3.321h-1.831v-3.79a5.1 5.1 0 0 0-.1-1.3.764.764 0 0 0-.3-.437.932.932 0 0 0-.556-.147 1.339 1.339 0 0 0-.761.227 1.252 1.252 0 0 0-.485.66 4.76 4.76 0 0 0-.149 1.43v3.36h-1.823v-6.91z" class="prefix__cls-2" data-name="Контур 508" transform="translate(6.336 -.309)"/>
            <path id="prefix__Контур_509" d="M128.918 29.379l1.829.314a2.984 2.984 0 0 1-1.105 1.518 3.281 3.281 0 0 1-1.891.519 3.075 3.075 0 0 1-2.661-1.184 3.977 3.977 0 0 1-.681-2.386 3.851 3.851 0 0 1 .9-2.7 2.939 2.939 0 0 1 2.265-.971A3.029 3.029 0 0 1 130 25.515a4.542 4.542 0 0 1 .854 3.135h-4.561a1.862 1.862 0 0 0 .439 1.266 1.365 1.365 0 0 0 1.039.458 1.088 1.088 0 0 0 .714-.238 1.444 1.444 0 0 0 .437-.757m.122-1.846a1.817 1.817 0 0 0-.409-1.229 1.281 1.281 0 0 0-1.926.023 1.727 1.727 0 0 0-.381 1.207h2.715z" class="prefix__cls-2" data-name="Контур 509" transform="translate(6.94 -.309)"/>
            <path id="prefix__Контур_510" d="M138.2 31.555h-1.829v-3.532a5.26 5.26 0 0 0-.117-1.447 1 1 0 0 0-.379-.513 1.055 1.055 0 0 0-.629-.182 1.44 1.44 0 0 0-.846.264 1.285 1.285 0 0 0-.515.688 6.035 6.035 0 0 0-.143 1.588v3.135h-1.827v-6.91h1.709v1.014a2.819 2.819 0 0 1 3.364-.954 1.8 1.8 0 0 1 .753.556 1.992 1.992 0 0 1 .359.77 5.751 5.751 0 0 1 .1 1.229v4.295z" class="prefix__cls-2" data-name="Контур 510" transform="translate(7.359 -.309)"/>
            <path id="prefix__Контур_511" d="M142.852 24.767v1.462H141.6v2.794a7.313 7.313 0 0 0 .035.988l.16.235a.5.5 0 0 0 .305.093 2.278 2.278 0 0 0 .724-.179l.149 1.417a3.5 3.5 0 0 1-1.43.277 2.22 2.22 0 0 1-.881-.169 1.254 1.254 0 0 1-.577-.429 1.692 1.692 0 0 1-.253-.716 8.472 8.472 0 0 1-.06-1.289V26.23h-.837v-1.462h.837v-1.376l1.826-1.078v2.454h1.253z" class="prefix__cls-2" data-name="Контур 511" transform="translate(7.75 -.431)"/>
            <path id="prefix__Контур_512" d="M156.829 31.686l-3.4-9.538h2.087l2.412 7.067 2.326-7.067h2.046l-3.38 9.538z" class="prefix__cls-2" data-name="Контур 512" transform="translate(8.559 -.44)"/>
            <path id="prefix__Контур_513" d="M161.408 28.01a3.7 3.7 0 0 1 .448-1.765 3.03 3.03 0 0 1 1.264-1.3 3.754 3.754 0 0 1 1.829-.45 3.428 3.428 0 0 1 2.561 1.019 3.838 3.838 0 0 1-.013 5.186 3.393 3.393 0 0 1-2.536 1.035 3.935 3.935 0 0 1-1.8-.431 2.94 2.94 0 0 1-1.3-1.264 4.163 4.163 0 0 1-.448-2.025m1.877.1a2.3 2.3 0 0 0 .485 1.575 1.528 1.528 0 0 0 1.19.549 1.507 1.507 0 0 0 1.186-.549 2.323 2.323 0 0 0 .482-1.59 2.271 2.271 0 0 0-.482-1.562 1.505 1.505 0 0 0-1.186-.547 1.526 1.526 0 0 0-1.19.547 2.3 2.3 0 0 0-.485 1.576" class="prefix__cls-2" data-name="Контур 513" transform="translate(9.004 -.309)"/>
            <path id="prefix__Контур_514" d="M171.248 31.555h-1.829v-6.91h1.705v.982a2.988 2.988 0 0 1 .786-.915 1.421 1.421 0 0 1 .794-.221 2.333 2.333 0 0 1 1.2.342l-.567 1.592a1.611 1.611 0 0 0-.862-.3 1.044 1.044 0 0 0-.658.208 1.476 1.476 0 0 0-.422.768 10.819 10.819 0 0 0-.151 2.317v2.136z" class="prefix__cls-2" data-name="Контур 514" transform="translate(9.451 -.309)"/>
            <path id="prefix__Контур_515" d="M173.793 29.606l1.831-.279a1.339 1.339 0 0 0 .472.807 1.631 1.631 0 0 0 1 .272 1.805 1.805 0 0 0 1.068-.26.6.6 0 0 0 .24-.5.481.481 0 0 0-.128-.344 1.5 1.5 0 0 0-.612-.245 9.928 9.928 0 0 1-2.821-.891 1.786 1.786 0 0 1-.822-1.559 1.929 1.929 0 0 1 .712-1.512 3.328 3.328 0 0 1 2.207-.61 3.887 3.887 0 0 1 2.118.46 2.382 2.382 0 0 1 .95 1.365l-1.722.314a1.065 1.065 0 0 0-.424-.621 1.588 1.588 0 0 0-.9-.212 2.047 2.047 0 0 0-1.045.2.446.446 0 0 0-.214.374.411.411 0 0 0 .186.334 6.954 6.954 0 0 0 1.716.517 5.159 5.159 0 0 1 2.049.816 1.7 1.7 0 0 1 .577 1.367 2.1 2.1 0 0 1-.79 1.638 3.482 3.482 0 0 1-2.347.688 3.846 3.846 0 0 1-2.227-.571 2.623 2.623 0 0 1-1.079-1.552" class="prefix__cls-2" data-name="Контур 515" transform="translate(9.695 -.309)"/>
            <path id="prefix__Контур_516" d="M181.016 28.01a3.753 3.753 0 0 1 .45-1.765 3.052 3.052 0 0 1 1.268-1.3 3.756 3.756 0 0 1 1.831-.45 3.425 3.425 0 0 1 2.557 1.019 3.542 3.542 0 0 1 1 2.581 3.583 3.583 0 0 1-1 2.6 3.411 3.411 0 0 1-2.54 1.035 3.957 3.957 0 0 1-1.8-.431 2.945 2.945 0 0 1-1.307-1.264 4.2 4.2 0 0 1-.45-2.025m1.882.1a2.307 2.307 0 0 0 .482 1.575 1.562 1.562 0 0 0 2.378 0 2.344 2.344 0 0 0 .48-1.59 2.292 2.292 0 0 0-.48-1.562 1.566 1.566 0 0 0-2.378 0 2.308 2.308 0 0 0-.482 1.576" class="prefix__cls-2" data-name="Контур 516" transform="translate(10.098 -.309)"/>
            <path id="prefix__Контур_517" d="M190.859 31.555h-1.829v-6.91h1.705v.982a2.932 2.932 0 0 1 .788-.915 1.432 1.432 0 0 1 .79-.221 2.332 2.332 0 0 1 1.207.342l-.563 1.592a1.623 1.623 0 0 0-.864-.3 1.044 1.044 0 0 0-.658.208 1.446 1.446 0 0 0-.42.768 10.747 10.747 0 0 0-.154 2.317v2.136z" class="prefix__cls-2" data-name="Контур 517" transform="translate(10.545 -.309)"/>
            <path id="prefix__Контур_518" d="M193.846 32.023l2.09.227a.767.767 0 0 0 .242.528 1.332 1.332 0 0 0 .822.2 2.147 2.147 0 0 0 1.077-.216.914.914 0 0 0 .367-.468 2.808 2.808 0 0 0 .084-.852l.015-1.021a2.487 2.487 0 0 1-2.079 1.13 2.549 2.549 0 0 1-2.2-1.179 3.977 3.977 0 0 1-.638-2.315 3.807 3.807 0 0 1 .835-2.652 2.71 2.71 0 0 1 2.079-.917 2.53 2.53 0 0 1 2.114 1.12v-.965h1.709v6.209a6.221 6.221 0 0 1-.206 1.835 2.256 2.256 0 0 1-.567.946 2.476 2.476 0 0 1-.971.545 5.17 5.17 0 0 1-1.543.194 3.977 3.977 0 0 1-2.493-.6 1.879 1.879 0 0 1-.738-1.523v-.226m1.654-4.072a2.5 2.5 0 0 0 .427 1.614 1.309 1.309 0 0 0 1.045.509 1.435 1.435 0 0 0 1.13-.519 2.3 2.3 0 0 0 .463-1.555 2.4 2.4 0 0 0-.441-1.594 1.391 1.391 0 0 0-1.116-.524 1.337 1.337 0 0 0-1.08.513 2.391 2.391 0 0 0-.427 1.558" class="prefix__cls-2" data-name="Контур 518" transform="translate(10.801 -.309)"/>
            <path id="prefix__Контур_519" d="M205.711 29.379l1.831.314a3.011 3.011 0 0 1-1.108 1.518 3.27 3.27 0 0 1-1.889.519 3.071 3.071 0 0 1-2.658-1.184 3.976 3.976 0 0 1-.679-2.386 3.838 3.838 0 0 1 .893-2.7 2.942 2.942 0 0 1 2.266-.971 3.03 3.03 0 0 1 2.425 1.025 4.537 4.537 0 0 1 .85 3.135h-4.557a1.86 1.86 0 0 0 .435 1.266 1.367 1.367 0 0 0 1.043.458 1.09 1.09 0 0 0 .712-.238 1.451 1.451 0 0 0 .436-.757m.121-1.846a1.806 1.806 0 0 0-.4-1.229 1.288 1.288 0 0 0-1.932.023 1.746 1.746 0 0 0-.379 1.207h2.715z" class="prefix__cls-2" data-name="Контур 519" transform="translate(11.224 -.309)"/>
            <path id="prefix__Контур_520" d="M208.66 31.686v-9.538h1.83v5.062l2.132-2.435h2.241l-2.346 2.525 2.521 4.389h-1.969l-1.736-3.118-.844.907v2.211z" class="prefix__cls-2" data-name="Контур 520" transform="translate(11.64 -.44)"/>
            <path id="prefix__Контур_521" d="M215.338 28.01a3.75 3.75 0 0 1 .448-1.765 3.075 3.075 0 0 1 1.268-1.3 3.747 3.747 0 0 1 1.831-.45 3.425 3.425 0 0 1 2.557 1.019 3.534 3.534 0 0 1 1 2.581 3.584 3.584 0 0 1-1.006 2.6 3.4 3.4 0 0 1-2.536 1.035 3.97 3.97 0 0 1-1.809-.431 2.961 2.961 0 0 1-1.3-1.264 4.212 4.212 0 0 1-.448-2.025m1.882.1a2.317 2.317 0 0 0 .48 1.575 1.564 1.564 0 0 0 2.38 0 2.344 2.344 0 0 0 .48-1.59 2.292 2.292 0 0 0-.48-1.562 1.568 1.568 0 0 0-2.38 0 2.324 2.324 0 0 0-.48 1.576" class="prefix__cls-2" data-name="Контур 521" transform="translate(12.013 -.309)"/>
            <path id="prefix__Контур_522" d="M229.7 31.555h-1.827v-3.532a5.67 5.67 0 0 0-.115-1.447 1.011 1.011 0 0 0-1.008-.695 1.439 1.439 0 0 0-.85.264 1.321 1.321 0 0 0-.517.688 6.185 6.185 0 0 0-.138 1.588v3.135h-1.825v-6.91h1.7v1.014a2.826 2.826 0 0 1 3.369-.954 1.859 1.859 0 0 1 .755.556 1.981 1.981 0 0 1 .353.77 5.4 5.4 0 0 1 .1 1.229v4.295z" class="prefix__cls-2" data-name="Контур 522" transform="translate(12.463 -.309)"/>
            <path id="prefix__Контур_523" d="M230.424 31.547V30.1l2.588-2.957c.427-.48.74-.825.945-1.027-.214.013-.5.021-.848.022l-2.46.011v-1.513h5.742v1.3l-2.65 3.035-.934 1c.507-.024.827-.037.948-.037h2.845v1.6h-6.174z" class="prefix__cls-2" data-name="Контур 523" transform="translate(12.854 -.301)"/>
            <path id="prefix__Контур_524" d="M241.43 29.379l1.829.314a2.979 2.979 0 0 1-1.11 1.518 3.254 3.254 0 0 1-1.887.519 3.077 3.077 0 0 1-2.661-1.184 3.99 3.99 0 0 1-.677-2.386 3.838 3.838 0 0 1 .893-2.7 2.947 2.947 0 0 1 2.265-.971 3.042 3.042 0 0 1 2.429 1.025 4.558 4.558 0 0 1 .85 3.135H238.8a1.872 1.872 0 0 0 .439 1.266 1.365 1.365 0 0 0 1.039.458 1.1 1.1 0 0 0 .716-.238 1.471 1.471 0 0 0 .435-.757m.124-1.846a1.85 1.85 0 0 0-.406-1.229 1.286 1.286 0 0 0-1.93.023 1.716 1.716 0 0 0-.379 1.207h2.715z" class="prefix__cls-2" data-name="Контур 524" transform="translate(13.217 -.309)"/>
            <path id="prefix__Контур_525" d="M244.4 24.645h1.7v1.015a2.518 2.518 0 0 1 .9-.841 2.437 2.437 0 0 1 1.252-.328 2.618 2.618 0 0 1 2.042.946 3.833 3.833 0 0 1 .839 2.633 3.948 3.948 0 0 1-.848 2.7 2.624 2.624 0 0 1-2.046.963 2.323 2.323 0 0 1-1.039-.233 3.551 3.551 0 0 1-.98-.779V34.2h-1.82v-9.555zm1.792 3.349a2.7 2.7 0 0 0 .46 1.733 1.407 1.407 0 0 0 1.125.559 1.318 1.318 0 0 0 1.056-.513 2.659 2.659 0 0 0 .422-1.683 2.526 2.526 0 0 0-.439-1.625 1.334 1.334 0 0 0-1.077-.532 1.407 1.407 0 0 0-1.11.522 2.345 2.345 0 0 0-.438 1.54" class="prefix__cls-2" data-name="Контур 525" transform="translate(13.634 -.309)"/>
            <path id="prefix__Контур_526" d="M255.367 24.767v1.462h-1.254v2.794a7.506 7.506 0 0 0 .033.988l.16.235a.513.513 0 0 0 .305.093 2.288 2.288 0 0 0 .726-.179l.149 1.417a3.518 3.518 0 0 1-1.431.277 2.256 2.256 0 0 1-.885-.169 1.281 1.281 0 0 1-.575-.429 1.814 1.814 0 0 1-.256-.716 9.684 9.684 0 0 1-.056-1.289V26.23h-.833v-1.462h.833v-1.376l1.829-1.078v2.454h1.254z" class="prefix__cls-2" data-name="Контур 526" transform="translate(14.027 -.431)"/>
            <path id="prefix__Контур_527" d="M260.336 29.379l1.825.314a2.984 2.984 0 0 1-1.105 1.518 3.265 3.265 0 0 1-1.889.519 3.075 3.075 0 0 1-2.661-1.184 3.992 3.992 0 0 1-.682-2.386 3.831 3.831 0 0 1 .9-2.7 2.952 2.952 0 0 1 2.263-.971 3.043 3.043 0 0 1 2.431 1.025 4.548 4.548 0 0 1 .848 3.135h-4.555a1.87 1.87 0 0 0 .433 1.266 1.374 1.374 0 0 0 1.043.458 1.1 1.1 0 0 0 .712-.238 1.437 1.437 0 0 0 .437-.757m.121-1.846a1.839 1.839 0 0 0-.409-1.229 1.285 1.285 0 0 0-1.929.023 1.727 1.727 0 0 0-.381 1.207h2.719z" class="prefix__cls-2" data-name="Контур 527" transform="translate(14.271 -.309)"/>
            <path id="prefix__Контур_528" d="M278.518 22.8l2.075-2.075a5.791 5.791 0 0 1 1.177-.963 2.615 2.615 0 0 1 1.364-.328 3.5 3.5 0 0 1 1.451.375 5.771 5.771 0 0 1 1.515 1.151 5.092 5.092 0 0 1 1.028 1.369 3.506 3.506 0 0 1 .4 1.6 2.83 2.83 0 0 1-.348 1.248 4.768 4.768 0 0 1-.885 1.122l-2.136 2.136zm2.105-.186l3.714 3.717.847-.848a4.213 4.213 0 0 0 .631-.74 1.459 1.459 0 0 0 .224-.688 1.642 1.642 0 0 0-.244-.837 5.187 5.187 0 0 0-.911-1.142 4.919 4.919 0 0 0-1.116-.887 1.856 1.856 0 0 0-.865-.221 1.554 1.554 0 0 0-.785.26 7.075 7.075 0 0 0-.986.876z" class="prefix__cls-2" data-name="Контур 528" transform="translate(15.537 -.592)"/>
            <path id="prefix__Контур_529" d="M290.66 21.953l-5.636-5.636 3.864-3.864.955.961-2.717 2.719 1.317 1.318 2.351-2.351.96.961-2.354 2.348 2.4 2.4z" class="prefix__cls-2" data-name="Контур 529" transform="translate(15.9 -.981)"/>
            <path id="prefix__Контур_530" d="M296.335 16.335L290.7 10.7l1.146-1.144 2.5 2.5-.21-4.792 1.529-1.531.062 4.3 5.685 1.227-1.472 1.47-4.188-1.1.025 1.858 1.7 1.7z" class="prefix__cls-2" data-name="Контур 530" transform="translate(16.217 -1.356)"/>
            <path id="prefix__Прямоугольник_40" d="M0 0H2.778V2.877H0z" class="prefix__cls-2" data-name="Прямоугольник 40" transform="translate(73.543 25.476)"/>
            <path id="prefix__Прямоугольник_41" d="M0 0H2.776V2.877H0z" class="prefix__cls-2" data-name="Прямоугольник 41" transform="translate(155.405 25.476)"/>
        </g>
    </g>
</svg>
