<svg xmlns="http://www.w3.org/2000/svg" width="224.175" height="86.52" viewBox="0 0 224.175 86.52">
    <defs>
        <style>
            .prefix__cls-2{fill:#d51317}
        </style>
    </defs>
    <g id="prefix__Без_названия" data-name="Без названия" style="mix-blend-mode:luminosity;isolation:isolate">
        <g id="prefix__XMLID_2_">
            <path id="prefix__XMLID_51_" d="M42.944 40.136c-2.994 13.877-6.75 37.323-12.09 45.527-4.366 6.707-13.216 11.211-20.488 12.363l-1.455.23c-.545.115-1.364.231-1.454-1.037L7 84.972c0-.576.181-2.074 1.364-2.3l1.546-.232c4-.575 7.078-3 9.544-9.8 2.93-8.07 3.014-9.252 8.181-36.767s41.144-23.916 41.144-23.916c2.334.154 3.572.18 4.779.341 1.025.136 1.077.765.932 1.5-.091.461-.091.461-.181 1.153L62.345 92.623c-.182.807-.182 1.613-1.636 1.613H47.545c-.909 0-2.039-.23-2.039-1.383 0-.461 10.567-64.934 10.567-64.934a15.06 15.06 0 0 0-13.129 12.217z" class="prefix__cls-2" transform="translate(-7.002 -11.803)"/>
            <path id="prefix__XMLID_48_" d="M297 50.843h-13.018a1.573 1.573 0 0 0-1.472 1.432l-.994 6.515c-1.392-4.95-6.29-9.256-11.351-9.557-12.786-.759-25.382 13.262-24.706 37.921.362 13.2 7.05 21.333 13.848 21.533 8.613.253 12.479-4.475 15.717-7.69l-.668 4.4c-.119.783.85 1.424 1.587 1.424h12.749a1.672 1.672 0 0 0 1.552-1.425l7.879-53.126A1.169 1.169 0 0 0 297 50.843zM278.615 81.09c-1.964 10.017-6.679 16.865-10.946 16.028s-6.471-9.042-4.507-19.059 6.965-17.131 11.284-16.621c5.383.636 6.133 9.635 4.169 19.652z" class="prefix__cls-2" transform="translate(-87.205 -24.384)"/>
            <path id="prefix__XMLID_47_" d="M155.39 51.674h-13.013a1.572 1.572 0 0 0-1.472 1.432s-2.345 15.35-3.481 22.31c-2.649 16.226-7.3 24.548-12.247 24-3.871-.43-5.807-4.185-2.307-26 1.187-7.4 3.412-20.312 3.412-20.312a1.169 1.169 0 0 0-1.128-1.424H112.14a1.573 1.573 0 0 0-1.472 1.432l-4.424 28.9c-3.406 18.69 1.942 25.686 9.236 27.076 6.618 1.262 14.7-4.04 17.94-7.255l-.668 4.4c-.119.783.85 1.424 1.587 1.424h12.749a1.67 1.67 0 0 0 1.551-1.425l7.88-53.126a1.17 1.17 0 0 0-1.129-1.432z" class="prefix__cls-2" transform="translate(-40.032 -25.215)"/>
            <path id="prefix__XMLID_45_" d="M180.685 104.8c4.084 3.1 8.753 4.41 14.781 4.41 12.624 0 22.858-8.318 22.858-18.58 0-5.435-2.873-10.324-7.45-13.722 5.2-2.6 8.649-7.179 8.649-12.4 0-8.1-8.288-14.661-18.512-14.661-3.688 0-8.656 1.275-10.01 2.327a2.334 2.334 0 0 0-.669 2.68l1.558 5.75s.28 1.451 1.286 1.248a20.955 20.955 0 0 1 3.933-.364c3.8 0 6.886 2.441 6.886 5.453s-3.083 5.454-6.886 5.454a15.431 15.431 0 0 1-2.412-.3c-1.106-.141-1.565.54-1.811 2.2-.213 1.436-.68 4.9-1.055 6.8-.215 1.092.119 1.99 1.8 2.088 5.378.313 8.131 2.96 8.131 6.61s-3.641 6.61-8.131 6.61a11.34 11.34 0 0 1-6.269-2.148 2.311 2.311 0 0 0-3.385.829s-3.284 4.963-4.171 6.494c-1.012 1.729.879 3.222.879 3.222z" class="prefix__cls-2" transform="translate(-65.028 -24.599)"/>
        </g>
        <g id="prefix__XMLID_61_" transform="translate(215.502 28.851)">
            <circle id="prefix__XMLID_72_" cx="4.089" cy="4.089" r="4.089" fill="none" stroke="#fff" stroke-width="0.992px"/>
            <g id="prefix__XMLID_64_" transform="translate(2.501 2.009)">
                <path id="prefix__XMLID_67_" fill="#fff" stroke="#fff" stroke-width="0.5px" d="M309.89 58.3h1.824c.447 0 1.365.065 1.365 1.106a.988.988 0 0 1-.705 1.018v.017c.553.2.583.571.595 1 .017.57-.006.747.165.982h-.583c-.147-.183-.147-.336-.153-.871-.006-.424-.035-.877-.777-.877h-1.177v1.748h-.553V58.3zm.553 1.907h1.236a.729.729 0 0 0 .812-.741c0-.542-.376-.7-.894-.7h-1.154z" transform="translate(-309.89 -58.305)"/>
            </g>
        </g>
    </g>
</svg>
